HIERARCHY
ROOT Hips
{
    OFFSET   0.000000   0.000000   0.000000
    CHANNELS 6 Xposition Yposition Zposition Zrotation Xrotation Yrotation
    JOINT Chest
    {
        OFFSET   0.000000   8.007230   0.000000
        CHANNELS 3 Zrotation Xrotation Yrotation
        JOINT Chest2
        {
            OFFSET   0.000000  22.077100   0.000000
            CHANNELS 3 Zrotation Xrotation Yrotation
            JOINT Neck
            {
                OFFSET   0.000000  23.254800  -0.000021
                CHANNELS 3 Zrotation Xrotation Yrotation
                JOINT Head
                {
                    OFFSET   0.000000  14.370000   1.956610
                    CHANNELS 3 Zrotation Xrotation Yrotation
                    End Site
                    {
                        OFFSET   0.000000  19.566000   0.000000
                    }
                }
            }
            JOINT LeftCollar
            {
                OFFSET   3.911900  19.017000  -0.467063
                CHANNELS 3 Zrotation Xrotation Yrotation
                JOINT LeftShoulder
                {
                    OFFSET  10.383700   0.000000   0.000000
                    CHANNELS 3 Zrotation Xrotation Yrotation
                    JOINT LeftElbow
                    {
                        OFFSET  26.662100   0.001529   0.000325
                        CHANNELS 3 Zrotation Xrotation Yrotation
                        JOINT LeftWrist
                        {
                            OFFSET  28.869000  -0.000011  -0.000096
                            CHANNELS 3 Zrotation Xrotation Yrotation
                            JOINT LeftFinger0
                            {
                                OFFSET   2.044650  -2.323460   3.252850
                                CHANNELS 3 Zrotation Xrotation Yrotation
                                JOINT LeftFinger01
                                {
                                    OFFSET   3.088130   0.000000   0.000000
                                    CHANNELS 3 Zrotation Xrotation Yrotation
                                    JOINT LeftFinger02
                                    {
                                        OFFSET   2.639460   0.000000   0.000000
                                        CHANNELS 3 Zrotation Xrotation Yrotation
                                        End Site
                                        {
                                            OFFSET   2.582190   0.000000   0.000000
                                        }
                                    }
                                }
                            }
                            JOINT LeftFinger1
                            {
                                OFFSET   8.364480   0.000000   3.252850
                                CHANNELS 3 Zrotation Xrotation Yrotation
                                JOINT LeftFinger11
                                {
                                    OFFSET   4.646930   0.000000   0.000000
                                    CHANNELS 3 Zrotation Xrotation Yrotation
                                    JOINT LeftFinger12
                                    {
                                        OFFSET   2.323460   0.000000   0.000000
                                        CHANNELS 3 Zrotation Xrotation Yrotation
                                        End Site
                                        {
                                            OFFSET   2.273050   0.000000   0.000000
                                        }
                                    }
                                }
                            }
                            JOINT LeftFinger2
                            {
                                OFFSET   8.364480   0.000016   1.078090
                                CHANNELS 3 Zrotation Xrotation Yrotation
                                JOINT LeftFinger21
                                {
                                    OFFSET   5.111620   0.000000   0.000000
                                    CHANNELS 3 Zrotation Xrotation Yrotation
                                    JOINT LeftFinger22
                                    {
                                        OFFSET   2.788160   0.000017   0.000000
                                        CHANNELS 3 Zrotation Xrotation Yrotation
                                        End Site
                                        {
                                            OFFSET   2.727660   0.000000   0.000000
                                        }
                                    }
                                }
                            }
                            JOINT LeftFinger3
                            {
                                OFFSET   7.899780   0.000015  -1.078090
                                CHANNELS 3 Zrotation Xrotation Yrotation
                                JOINT LeftFinger31
                                {
                                    OFFSET   4.646920   0.000000   0.000000
                                    CHANNELS 3 Zrotation Xrotation Yrotation
                                    JOINT LeftFinger32
                                    {
                                        OFFSET   2.323470   0.000000   0.000000
                                        CHANNELS 3 Zrotation Xrotation Yrotation
                                        End Site
                                        {
                                            OFFSET   2.273050   0.000000   0.000000
                                        }
                                    }
                                }
                            }
                            JOINT LeftFinger4
                            {
                                OFFSET   7.435090   0.000000  -3.252850
                                CHANNELS 3 Zrotation Xrotation Yrotation
                                JOINT LeftFinger41
                                {
                                    OFFSET   3.717550   0.000000   0.000000
                                    CHANNELS 3 Zrotation Xrotation Yrotation
                                    JOINT LeftFinger42
                                    {
                                        OFFSET   1.858760   0.000000   0.000000
                                        CHANNELS 3 Zrotation Xrotation Yrotation
                                        End Site
                                        {
                                            OFFSET   1.818440   0.000000   0.000000
                                        }
                                    }
                                }
                            }
                        }
                    }
                }
            }
            JOINT RightCollar
            {
                OFFSET  -3.911900  19.017000  -0.467062
                CHANNELS 3 Zrotation Xrotation Yrotation
                JOINT RightShoulder
                {
                    OFFSET -10.383700   0.000015   0.000000
                    CHANNELS 3 Zrotation Xrotation Yrotation
                    JOINT RightElbow
                    {
                        OFFSET -26.662100   0.001341   0.000385
                        CHANNELS 3 Zrotation Xrotation Yrotation
                        JOINT RightWrist
                        {
                            OFFSET -28.869000   0.000025  -0.000080
                            CHANNELS 3 Zrotation Xrotation Yrotation
                            JOINT RightFinger0
                            {
                                OFFSET  -2.044650  -2.323490   3.252850
                                CHANNELS 3 Zrotation Xrotation Yrotation
                                JOINT RightFinger01
                                {
                                    OFFSET  -3.088130   0.000000   0.000000
                                    CHANNELS 3 Zrotation Xrotation Yrotation
                                    JOINT RightFinger02
                                    {
                                        OFFSET  -2.639460   0.000000   0.000000
                                        CHANNELS 3 Zrotation Xrotation Yrotation
                                        End Site
                                        {
                                            OFFSET  -2.582190   0.000000   0.000000
                                        }
                                    }
                                }
                            }
                            JOINT RightFinger1
                            {
                                OFFSET  -8.364480   0.000000   3.252850
                                CHANNELS 3 Zrotation Xrotation Yrotation
                                JOINT RightFinger11
                                {
                                    OFFSET  -4.646930   0.000000   0.000000
                                    CHANNELS 3 Zrotation Xrotation Yrotation
                                    JOINT RightFinger12
                                    {
                                        OFFSET  -2.323470   0.000000   0.000000
                                        CHANNELS 3 Zrotation Xrotation Yrotation
                                        End Site
                                        {
                                            OFFSET  -2.273050   0.000000   0.000000
                                        }
                                    }
                                }
                            }
                            JOINT RightFinger2
                            {
                                OFFSET  -8.364480   0.000000   1.078090
                                CHANNELS 3 Zrotation Xrotation Yrotation
                                JOINT RightFinger21
                                {
                                    OFFSET  -5.111610   0.000000   0.000000
                                    CHANNELS 3 Zrotation Xrotation Yrotation
                                    JOINT RightFinger22
                                    {
                                        OFFSET  -2.788160   0.000000   0.000000
                                        CHANNELS 3 Zrotation Xrotation Yrotation
                                        End Site
                                        {
                                            OFFSET  -2.727660   0.000000   0.000000
                                        }
                                    }
                                }
                            }
                            JOINT RightFinger3
                            {
                                OFFSET  -7.899780   0.000000  -1.078090
                                CHANNELS 3 Zrotation Xrotation Yrotation
                                JOINT RightFinger31
                                {
                                    OFFSET  -4.646920   0.000000   0.000000
                                    CHANNELS 3 Zrotation Xrotation Yrotation
                                    JOINT RightFinger32
                                    {
                                        OFFSET  -2.323470   0.000000   0.000000
                                        CHANNELS 3 Zrotation Xrotation Yrotation
                                        End Site
                                        {
                                            OFFSET  -2.273050   0.000000   0.000000
                                        }
                                    }
                                }
                            }
                            JOINT RightFinger4
                            {
                                OFFSET  -7.435090   0.000000  -3.252850
                                CHANNELS 3 Zrotation Xrotation Yrotation
                                JOINT RightFinger41
                                {
                                    OFFSET  -3.717550   0.000000   0.000000
                                    CHANNELS 3 Zrotation Xrotation Yrotation
                                    JOINT RightFinger42
                                    {
                                        OFFSET  -1.858770   0.000000   0.000000
                                        CHANNELS 3 Zrotation Xrotation Yrotation
                                        End Site
                                        {
                                            OFFSET  -1.818440   0.000000   0.000000
                                        }
                                    }
                                }
                            }
                        }
                    }
                }
            }
        }
    }
    JOINT LeftHip
    {
        OFFSET   9.783010   0.000000   0.000000
        CHANNELS 3 Zrotation Xrotation Yrotation
        JOINT LeftKnee
        {
            OFFSET   0.000070 -41.789100   0.000028
            CHANNELS 3 Zrotation Xrotation Yrotation
            JOINT LeftAnkle
            {
                OFFSET   0.000087 -41.133200  -0.000100
                CHANNELS 3 Zrotation Xrotation Yrotation
                JOINT LeftToe
                {
                    OFFSET   0.000000  -6.358960  14.674500
                    CHANNELS 3 Zrotation Xrotation Yrotation
                    End Site
                    {
                        OFFSET   0.000000   0.000000   3.913200
                    }
                }
            }
        }
    }
    JOINT RightHip
    {
        OFFSET  -9.783020   0.000000   0.000000
        CHANNELS 3 Zrotation Xrotation Yrotation
        JOINT RightKnee
        {
            OFFSET   0.000044 -41.789100  -0.000870
            CHANNELS 3 Zrotation Xrotation Yrotation
            JOINT RightAnkle
            {
                OFFSET  -0.000090 -41.133200  -0.000245
                CHANNELS 3 Zrotation Xrotation Yrotation
                JOINT RightToe
                {
                    OFFSET   0.000000  -6.358960  14.674500
                    CHANNELS 3 Zrotation Xrotation Yrotation
                    End Site
                    {
                        OFFSET   0.000000   0.000000   3.913200
                    }
                }
            }
        }
    }
}
MOTION
Frames: 4
Frame Time:   0.016667
  1.167380  89.469200  -0.552619  -1.552280  -1.431450   0.231923   0.811481   3.746960  -1.302280   1.713790   7.474050  -2.666300  -1.400610  -0.741715  -0.014401  -2.302050  -1.501170   7.937060  -9.443450  -0.710579   8.891360 -74.397600   8.810870   1.442290   0.482250   2.393120 -19.891000   7.664450  -9.682370   0.578763  39.210900  32.456500 -48.097100 -32.867700   0.011049   0.007183 -11.433800   0.005992  -0.002600 -33.544700  -0.855372   1.286230 -27.453600   0.003405   0.006072 -19.217500   0.000787   0.004660 -29.618200  -3.741550   6.547750 -44.748100  -0.010839   0.006344 -29.802200  -0.011807   0.002451 -28.086200  -3.661900   6.818470 -34.256100  -0.005755   0.012804 -22.814600  -0.005917   0.007083 -28.436700  -4.254130   7.800060 -43.090300   0.000263   0.004496 -28.698200  -0.007224   0.000266  10.547400   4.048910  11.747800  65.364200  -5.313480   2.707100   1.584290  -5.607710  17.899000 -12.206200  -2.290240   2.839290 -53.025900  49.156000  97.347300  24.809600   0.001055  -0.002168   7.404790  -0.001905   0.001254  29.963200   1.242080   2.153310  24.534500  -0.001729  -0.005541  17.174100  -0.010211  -0.003869  28.139000  -1.302610  -2.434450  33.121700  -0.003183   0.000707  22.059000  -0.004220  -0.009480  27.944000  -2.207030  -4.152330  32.158100  -0.002605   0.000241  21.417300  -0.003626  -0.004351  32.417900  -2.524460  -3.967520  48.758200  -0.004106  -0.006755  32.473000  -0.005368  -0.002701   3.868930   3.795690   0.453969  -0.126437   0.174902  10.931400  -3.046750  -2.957110   0.986684  -0.000000   0.000000   0.000000  -1.921050   4.312210  -3.671330   1.601400   0.259959 -13.830800   0.425500  -2.178660   2.855080  -0.000000   0.000000   0.000000
  1.156040  89.469200  -0.561080  -1.546540  -1.452880   0.251467   0.807485   3.764170  -1.300910   1.706130   7.508570  -2.663590  -1.386210  -0.728105  -0.014449  -2.278380  -1.473820   7.936230  -9.448410  -0.729798   8.896440 -74.387600   8.849030   1.426780   0.482710   2.393630 -19.888900   7.675730  -9.686080   0.578780  39.216300  32.460000 -48.101900 -32.861900   0.011046   0.007178 -11.431000   0.005992  -0.002605 -33.552900  -0.855487   1.280970 -27.460300   0.003401   0.006071 -19.222200   0.000786   0.004660 -29.624800  -3.741550   6.547730 -44.758000  -0.010834   0.006336 -29.808800  -0.011802   0.002444 -28.089700  -3.661860   6.818470 -34.284600  -0.005757   0.012804 -22.833600  -0.005922   0.007083 -28.442800  -4.258650   7.806250 -43.100300   0.000265   0.004494 -28.704800  -0.007227   0.000268  10.540700   4.030980  11.760400  65.294800  -5.205270   2.692240   1.586350  -5.525980  17.898000 -12.175400  -2.316170   2.810770 -53.084600  49.187600  97.414000  24.782300   0.001060  -0.002158   7.391130  -0.001909   0.001251  29.969700   1.249580   2.165700  24.540100  -0.001728  -0.005540  17.178100  -0.010212  -0.003869  28.140200  -1.290160  -2.410980  33.137700  -0.003185   0.000718  22.069700  -0.004225  -0.009481  27.949600  -2.195570  -4.129910  32.190500  -0.002607   0.000252  21.438900  -0.003630  -0.004345  32.431900  -2.511860  -3.945700  48.777900  -0.004103  -0.006752  32.486200  -0.005367  -0.002698   3.869290   3.834600   0.450287  -0.123890   0.116158  10.933100  -3.048970  -2.915040   0.971362  -0.000000   0.000000  -0.000000  -1.920870   4.325880  -3.671350   1.601110   0.273202 -13.842300   0.417583  -2.185900   2.848860   0.000000   0.000000   0.000000
  1.137270  89.469100  -0.574529  -1.537190  -1.490640   0.279719   0.799964   3.794100  -1.296650   1.691540   7.568680  -2.655110  -1.357690  -0.701997  -0.014498  -2.231400  -1.421220   7.930950  -9.457390  -0.760311   8.904250 -74.371000   8.914350   1.393330   0.483071   2.394180 -19.884300   7.687040  -9.692960   0.578803  39.219000  32.458300 -48.117200 -32.856200   0.011039   0.007173 -11.428100   0.005990  -0.002616 -33.572100  -0.855647   1.275650 -27.476000   0.003394   0.006071 -19.233200   0.000782   0.004659 -29.636400  -3.741550   6.547680 -44.775500  -0.010821   0.006317 -29.820500  -0.011789   0.002425 -28.095300  -3.661820   6.818470 -34.329400  -0.005763   0.012803 -22.863400  -0.005936   0.007083 -28.452400  -4.266470   7.817280 -43.116100   0.000270   0.004491 -28.715300  -0.007235   0.000274  10.527700   4.005550  11.783600  65.165300  -4.995750   2.660550   1.585400  -5.362960  17.903300 -12.112200  -2.379660   2.758870 -53.183800  49.245600  97.534900  24.728400   0.001068  -0.002142   7.364170  -0.001921   0.001249  29.980000   1.267790   2.196240  24.549200  -0.001724  -0.005537  17.184500  -0.010215  -0.003869  28.142400  -1.265750  -2.365110  33.158800  -0.003190   0.000747  22.083800  -0.004235  -0.009485  27.958400  -2.173990  -4.088000  32.239200  -0.002614   0.000277  21.471300  -0.003639  -0.004328  32.453800  -2.487960  -3.905040  48.808300  -0.004096  -0.006743  32.506400  -0.005365  -0.002690   3.870320   3.888930   0.442643  -0.121342   0.057414  10.937900  -3.054950  -2.872980   0.948369   0.000000   0.000000   0.000000  -1.919950   4.351630  -3.671390   1.600270   0.292493 -13.859000   0.405014  -2.197030   2.840380   0.000000   0.000000   0.000000
  1.122460  89.469100  -0.583921  -1.529940  -1.525260   0.292982   0.791920   3.820940  -1.288920   1.675580   7.622650  -2.639580  -1.325620  -0.674284  -0.014481  -2.178590  -1.365160   7.909500  -9.466210  -0.783134   8.910070 -74.357700   8.972830   1.351350   0.474324   2.375750 -19.878500   7.685850  -9.701880   0.576579  39.199600  32.437900 -48.154300 -32.876700   0.011033   0.007179 -11.438400   0.005980  -0.002626 -33.606300  -0.855714   1.275590 -27.503800   0.003386   0.006071 -19.252900   0.000775   0.004658 -29.649900  -3.741530   6.547620 -44.796000  -0.010800   0.006288 -29.834100  -0.011769   0.002393 -28.100100  -3.661860   6.824190 -34.366300  -0.005773   0.012802 -22.887900  -0.005958   0.007083 -28.460400  -4.273830   7.827690 -43.129100   0.000280   0.004485 -28.723900  -0.007248   0.000281  10.514000   3.993560  11.808300  65.034500  -4.768650   2.622250   1.579490  -5.177460  17.951600 -12.042100  -2.479700   2.707610 -53.271500  49.304900  97.655300  24.669500   0.001079  -0.002127   7.334740  -0.001940   0.001253  29.988800   1.293080   2.239130  24.557800  -0.001714  -0.005532  17.190400  -0.010216  -0.003871  28.144100  -1.239060  -2.315120  33.164800  -0.003199   0.000791  22.087800  -0.004248  -0.009491  27.964300  -2.152480  -4.046640  32.272100  -0.002628   0.000311  21.493200  -0.003649  -0.004300  32.470100  -2.464000  -3.865060  48.831200  -0.004089  -0.006728  32.521600  -0.005356  -0.002677   3.872190   3.902740   0.432583  -0.120086   0.081769  10.946800  -3.067940  -2.876900   0.935160  -0.000000   0.000000  -0.000000  -1.918280   4.378510  -3.671380   1.598940   0.303450 -13.866700   0.396572  -2.204410   2.837550  -0.000000   0.000000   0.000000
